<?xml version="1.0" encoding="UTF-8" standalone="no"?>
<svg
   xml:space="preserve"
   width="3000"
   height="3000"
   data-version="2"
   version="1.1"
   id="svg559"
   sodipodi:docname="slavistiktag logo.svg"
   inkscape:version="1.2.2 (732a01da63, 2022-12-09)"
   xmlns:inkscape="http://www.inkscape.org/namespaces/inkscape"
   xmlns:sodipodi="http://sodipodi.sourceforge.net/DTD/sodipodi-0.dtd"
   xmlns="http://www.w3.org/2000/svg"
   xmlns:svg="http://www.w3.org/2000/svg"><defs
   id="defs563" /><sodipodi:namedview
   id="namedview561"
   pagecolor="#ffffff"
   bordercolor="#666666"
   borderopacity="1.0"
   inkscape:showpageshadow="2"
   inkscape:pageopacity="0.0"
   inkscape:pagecheckerboard="0"
   inkscape:deskcolor="#d1d1d1"
   showgrid="false"
   inkscape:zoom="0.268"
   inkscape:cx="1501.8657"
   inkscape:cy="1501.8657"
   inkscape:window-width="1920"
   inkscape:window-height="991"
   inkscape:window-x="-9"
   inkscape:window-y="-9"
   inkscape:window-maximized="1"
   inkscape:current-layer="svg559" />
    <path
   d="M970.7 1432q17.823 0 29.537-4.38 11.713-4.381 17.486-14.153 5.772-9.815 5.772-25.863 0-14.363-5.94-23.63-5.942-9.266-16.096-15.037-10.155-5.77-22.711-9.603-12.598-3.833-25.913-6.992-15.38-4.17-29.537-8.888-14.157-4.76-25.365-12.594-11.166-7.877-17.655-20.64-6.446-12.762-6.446-32.348 0-19.924 9.27-34.413 9.227-14.532 26.376-22.577 17.149-8.045 40.239-8.045 18.54 0 33.034 5.602t24.986 18.702q10.491 13.141 15.758 36.182l-8.385-7.33 4.172-48.607h21.7v71.353h-23.428q-5.267-17.86-14.536-30.075-9.27-12.257-22.205-18.533-12.936-6.318-29.706-6.318-16.812 0-27.472 4.928-10.66 4.886-15.547 14.153-4.888 9.267-4.888 22.198 0 12.93 5.393 21.144 5.436 8.214 14.874 13.269 9.438 5.096 22.036 8.76 12.599 3.665 26.925 7.498 15.042 3.875 29.578 8.761 14.495 4.886 26.545 12.932 12.093 8.045 19.088 20.807 6.994 12.763 6.994 31.97 0 24.852-11.04 41.11-10.997 16.217-29.704 24.093-18.708 7.877-42.515 7.877-22.036 0-40.365-6.824-18.37-6.823-31.138-22.366-12.767-15.542-17.654-42.12l10.828 9.771-4.213 57.327h-22.71v-82.136h23.763q5.267 21.313 16.433 36.013 11.208 14.659 27.472 21.861 16.264 7.16 36.91 7.16"
   id="path345" />
    <rect
   width="44.74"
   height="61.84"
   x="-22.37"
   y="-30.92"
   fill="none"
   rx="0"
   ry="0"
   transform="matrix(4.2135 0 0 4.2121 962.484 1325.181)"
   id="rect347" />
    <path
   d="M1149.395 1182.349v230.402q0 10.825 8.047 14.32 8.048 3.497 21.658 3.497h1.053v16.806h-92.318v-16.806h1.39q13.653 0 21.532-3.496 7.88-3.496 7.88-14.321v-195.779q0-5.223-2.992-7.876-2.992-2.612-8.933-4.339-5.941-1.769-15.38-3.496l-3.497-.716v-18.196Z"
   id="path349" />
    <rect
   width="21.91"
   height="62.92"
   x="-10.955"
   y="-31.46"
   fill="none"
   rx="0"
   ry="0"
   transform="matrix(4.2135 0 0 4.2121 1136.101 1316.967)"
   id="rect351" />
    <path
   d="M1331.586 1333.058v18.533q-21.32 2.78-36.7 6.276-15.378 3.496-25.533 7.708-10.155 4.17-16.096 9.435-5.94 5.223-8.384 11.878t-2.444 14.321q0 9.815 4.003 16.428 4.045 6.655 11.376 9.982 7.332 3.328 17.149 3.328 11.166 0 20.604-5.265 9.438-5.223 18.202-15.711 8.722-10.489 17.15-26.242l.336 20.64q-6.994 14.32-16.264 24.809-9.27 10.488-20.983 16.258-11.714 5.771-26.419 5.771-16.77 0-29.705-5.77-12.935-5.771-20.309-16.933-7.331-11.204-7.331-26.916 0-14.7 6.657-25.525 6.657-10.867 21.152-18.912 14.494-8.003 37.584-13.984 23.09-5.94 55.955-10.11m-.674 114.317-4.213-40.563-1.728-2.106v-91.234q0-13.268-3.497-21.313-3.497-8.045-11.714-11.541-8.258-3.496-22.247-3.496-20.983 0-34.256 5.939-13.272 5.94-19.93 12.594 0-2.822 1.391-5.77 1.39-2.991 3.834-5.602 2.486-2.612 5.773-4.381 3.328-1.727 7.542-2.443v40.562h-30.8v-42.668q4.93-3.833 14.199-8.214 9.27-4.38 22.88-7.666 13.65-3.327 30.8-3.327 13.989 0 26.208 2.78 12.261 2.822 21.32 9.098 9.101 6.276 14.368 16.427 5.225 10.151 5.225 24.81v105.597q0 4.886 3.497 7.708 3.497 2.78 9.817 4.001 6.279 1.222 15.38 2.275l1.727.337v18.196Z"
   id="path353" />
    <rect
   width="41.83"
   height="46.31"
   x="-20.915"
   y="-23.155"
   fill="none"
   rx="0"
   ry="0"
   transform="matrix(4.2135 0 0 4.2121 1300.47 1355.778)"
   id="rect355" />
    <path
   d="M1549.466 1285.84q-.337-2.106-4.55-4.002-4.171-1.937-10.492-2.822-6.278-.842-13.272-.842h-1.77v-18.533h79.762v18.533h-1.39q-6.658 0-12.094 1.39-5.393 1.39-9.438 5.054-4.003 3.665-6.826 11.036l-58.399 153.826h-33.918l-58.4-155.932q-2.106-6.318-5.94-9.603-3.835-3.328-9.27-4.55-5.436-1.221-13.104-1.221h-1.433v-18.533h88.147v18.533h-1.728q-7.71 0-14.537.168-6.825.169-11.165.674-4.382.548-4.382 1.938l55.576 153.11-4.888-3.496Z"
   id="path357" />
    <rect
   width="49.89"
   height="45.07"
   x="-24.945"
   y="-22.535"
   fill="none"
   rx="0"
   ry="0"
   transform="matrix(4.2135 0 0 4.2121 1496.145 1356.662)"
   id="rect359" />
    <path
   d="M1662.093 1221.184q-10.154 0-16.432-5.602-6.32-5.602-6.32-16.764 0-10.867 6.32-16.47 6.278-5.56 16.432-5.56 9.776 0 16.264 5.56 6.447 5.603 6.447 16.47 0 11.162-6.447 16.764-6.488 5.602-16.264 5.602m17.823 38.457v153.11q0 10.825 8.048 14.32 8.048 3.497 21.7 3.497h1.011v16.806h-92.318v-16.806h1.054q13.651 0 21.7-3.496 8.047-3.496 8.047-14.321v-118.529q0-7.666-6.657-10.277-6.658-2.654-20.647-5.434l-3.497-.716v-18.154Z"
   id="path361" />
    <rect
   width="21.91"
   height="64.24"
   x="-10.955"
   y="-32.12"
   fill="none"
   rx="0"
   ry="0"
   transform="matrix(4.2135 0 0 4.2121 1666.623 1314.187)"
   id="rect363" />
    <path
   d="M1856.883 1398.092q0-8.424-4.045-13.984-4.002-5.602-10.997-9.098-6.994-3.496-15.927-5.77-8.89-2.275-18.328-4.381-11.545-2.78-22.753-6.276t-20.267-9.435q-9.101-5.981-14.537-15.585-5.393-9.604-5.393-23.925 0-16.09 8.005-28.136 8.048-12.09 23.47-18.744 15.379-6.613 37.036-6.613 17.15 0 29.916 2.106 12.767 2.064 21.32 4.886 8.596 2.78 12.767 5.223v44.058h-30.758v-36.35q3.497 0 6.11 1.053 2.612 1.053 4.213 2.948 1.559 1.938 2.444 5.097.885 3.117.505 6.992-4.171-4.928-11.165-8.424-6.995-3.496-15.927-5.055-8.933-1.558-19.425-1.558-20.604 0-30.253 7.666-9.606 7.708-9.606 20.976 0 8.761 4.045 14.363 4.002 5.56 10.997 9.056 6.994 3.497 16.264 6.15 9.27 2.612 19.424 4.718 11.166 2.443 22.374 6.107 11.166 3.665 20.098 9.604 8.933 5.939 14.326 15.374 5.436 9.477 5.436 23.798 0 16.428-8.385 29.19-8.385 12.763-24.818 19.923-16.475 7.161-40.576 7.161-17.486 0-31.306-2.275-13.82-2.274-24.48-6.276-10.66-4.043-18.371-8.592v-45.786h31.474v48.27q-5.604-2.821-8.553-5.601-2.992-2.822-4.045-5.602-1.053-2.78-1.053-5.94 0-3.158.716-6.317 5.604 5.265 13.82 9.098 8.217 3.875 18.708 6.15 10.492 2.232 23.09 2.232 14.663 0 24.48-3.665 9.776-3.664 14.874-10.825 5.056-7.16 5.056-17.986"
   id="path365" />
    <rect
   width="35.11"
   height="46.31"
   x="-17.555"
   y="-23.155"
   fill="none"
   rx="0"
   ry="0"
   transform="matrix(4.2135 0 0 4.2121 1814.39 1355.778)"
   id="rect367" />
    <path
   d="M1906.898 1280.617v-19.25h3.834q11.882 0 19.93-1.558t12.093-6.486q4.002-4.886 4.002-14.659l22.711 20.977h66.826v20.976Zm68.553 109.767q0 14.7 4.172 23.083 4.213 8.382 12.261 11.878 8.048 3.496 19.214 3.496 9.1 0 16.811-1.222 7.669-1.221 10.492-1.937v20.976q-3.497 1.053-8.764 2.106-5.225 1.053-10.829 1.77-5.604.673-11.545.673-16.432 0-30.8-4.886-14.326-4.886-23.217-17.986-8.932-13.141-8.932-37.614v-125.857l2.443-2.78v-55.937h28.694Z"
   id="path369" />
    <rect
   width="31.21"
   height="58.18"
   x="-15.605"
   y="-29.09"
   fill="none"
   rx="0"
   ry="0"
   transform="matrix(4.2135 0 0 4.2121 1974.756 1330.783)"
   id="rect371" />
    <path
   d="M2109.356 1221.184q-10.112 0-16.432-5.602-6.278-5.602-6.278-16.764 0-10.867 6.278-16.47 6.32-5.56 16.432-5.56 9.818 0 16.264 5.56 6.49 5.603 6.49 16.47 0 11.162-6.49 16.764-6.446 5.602-16.264 5.602m17.866 38.457v153.11q0 10.825 8.047 14.32 8.048 3.497 21.658 3.497h1.053v16.806h-92.318v-16.806h1.054q13.651 0 21.657-3.496 8.048-3.496 8.048-14.321v-118.529q0-7.666-6.615-10.277-6.658-2.654-20.646-5.434l-3.498-.716v-18.154Z"
   id="path373" />
    <rect
   width="21.91"
   height="64.24"
   x="-10.955"
   y="-32.12"
   fill="none"
   rx="0"
   ry="0"
   transform="matrix(4.2135 0 0 4.2121 2113.928 1314.187)"
   id="rect375" />
    <path
   d="M2395.79 1447.374h-94.087v-16.806h1.77q5.224 0 10.997-.337 5.772-.337 9.817-1.222 4.003-.884 4.003-1.937l-70.281-77.587v-2.822l66.447-64.656q0-2.106-4.888-3.328-4.888-1.221-11.714-1.727-6.826-.547-12.43-.547h-3.497v-16.764h91.981v16.764h-3.497q-6.995 0-13.273 1.221-6.32 1.222-11.713 4.55-5.436 3.327-11.377 8.93l-62.95 61.159 1.391-18.154 76.602 83.526q4.887 5.265 9.943 8.045 5.099 2.822 11.04 3.875 5.94 1.01 12.935 1.01h2.781Zm-151.054-265.025v244.723q0 1.053 4.34 1.937 4.382.885 10.323 1.222 5.941.337 10.492.337h2.106v16.806h-89.2v-16.806h1.054q9.101 0 15.759-1.559 6.657-1.558 10.323-5.939 3.665-4.38 3.665-12.046v-194.052q0-5.223-2.991-7.876-2.95-2.612-8.89-4.339-5.942-1.769-15.422-3.496l-3.497-.716v-18.196Z"
   id="path377" />
    <rect
   width="50.55"
   height="62.92"
   x="-25.275"
   y="-31.46"
   fill="none"
   rx="0"
   ry="0"
   transform="matrix(4.2135 0 0 4.2121 2291.4 1316.967)"
   id="rect379" />
    <path
   d="M2407.335 1280.617v-19.25h3.834q11.925 0 19.93-1.558 8.048-1.558 12.093-6.486 4.003-4.886 4.003-14.659l22.753 20.977h66.784v20.976Zm68.554 109.767q0 14.7 4.171 23.083 4.214 8.382 12.261 11.878 8.048 3.496 19.214 3.496 9.101 0 16.812-1.222 7.668-1.221 10.491-1.937v20.976q-3.497 1.053-8.764 2.106-5.224 1.053-10.828 1.77-5.604.673-11.545.673-16.433 0-30.759-4.886-14.368-4.886-23.258-17.986-8.933-13.141-8.933-37.614v-125.857l2.444-2.78v-55.937h28.694Z"
   id="path381" />
    <rect
   width="31.21"
   height="58.18"
   x="-15.605"
   y="-29.09"
   fill="none"
   rx="0"
   ry="0"
   transform="matrix(4.2135 0 0 4.2121 2475.194 1330.783)"
   id="rect383" />
    <path
   d="M2690.272 1333.058v18.533q-21.363 2.78-36.742 6.276-15.38 3.496-25.534 7.708-10.112 4.17-16.053 9.435-5.984 5.223-8.427 11.878-2.444 6.655-2.444 14.321 0 9.815 4.045 16.428 4.003 6.655 11.334 9.982 7.374 3.328 17.149 3.328 11.208 0 20.646-5.265 9.438-5.223 18.16-15.711 8.764-10.489 17.15-26.242l.336 20.64q-6.994 14.32-16.222 24.809-9.27 10.488-20.983 16.258-11.755 5.771-26.418 5.771-16.812 0-29.748-5.77-12.935-5.771-20.267-16.933-7.331-11.204-7.331-26.916 0-14.7 6.615-25.525 6.657-10.867 21.194-18.912 14.494-8.003 37.584-13.984 23.09-5.94 55.956-10.11m-.717 114.317-4.171-40.563-1.77-2.106v-91.234q0-13.268-3.497-21.313-3.497-8.045-11.713-11.541-8.217-3.496-22.206-3.496-20.983 0-34.255 5.939-13.315 5.94-19.972 12.594 0-2.822 1.432-5.77 1.39-2.991 3.835-5.602 2.443-2.612 5.772-4.381 3.329-1.727 7.5-2.443v40.562h-30.758v-42.668q4.887-3.833 14.157-8.214 9.27-4.38 22.921-7.666 13.61-3.327 30.759-3.327 13.989 0 26.25 2.78 12.22 2.822 21.32 9.098 9.101 6.276 14.326 16.427 5.267 10.151 5.267 24.81v105.597q0 4.886 3.497 7.708 3.497 2.78 9.776 4.001 6.32 1.222 15.379 2.275l1.77.337v18.196Z"
   id="path385" />
    <rect
   width="41.83"
   height="46.31"
   x="-20.915"
   y="-23.155"
   fill="none"
   rx="0"
   ry="0"
   transform="matrix(4.2135 0 0 4.2121 2659.155 1355.778)"
   id="rect387" />
    <path
   d="M2966.55 1280.617q-16.095-.716-27.471-.38-11.377.38-19.214 2.107-7.879 1.769-13.146 5.939l-5.225-1.39q4.55-11.162 10.83-19.207 6.32-8.045 14.156-12.931 7.88-4.928 17.866-6.655 9.944-1.77 22.205-.716Zm-112.289 109.767q-21.657 0-38.259-8.213-16.643-8.214-25.913-23.251t-9.27-35.297q0-19.924 9.481-35.13 9.438-15.247 26.04-23.798 16.6-8.55 37.921-8.55 21.7 0 38.47 8.55 16.811 8.55 26.25 23.799 9.438 15.205 9.438 35.129 0 20.26-9.439 35.297-9.438 15.037-26.039 23.25-16.643 8.214-38.68 8.214m0-20.639q13.989 0 23.638-5.223 9.607-5.265 14.494-15.585 4.888-10.277 4.888-25.314 0-15.038-4.888-25.526-4.887-10.488-14.494-15.922-9.65-5.433-23.638-5.433-13.61 0-23.048 5.433-9.438 5.434-14.368 15.922-4.888 10.488-4.888 25.526 0 15.037 4.888 25.314 4.93 10.32 14.368 15.585 9.438 5.223 23.048 5.223m-15.38 162.924q-22.71 0-40.365-4.38-17.696-4.339-27.809-13.985-10.154-9.603-10.154-25.314 0-10.152 4.55-17.86 4.551-7.666 13.99-14.32 9.437-6.656 23.763-13.985l10.492 6.655q-9.06 6.276-14.494 12.047-5.436 5.77-7.711 11.372-2.275 5.602-2.275 12.215 0 8.383 5.098 14.153 5.056 5.77 16.264 9.098 11.166 3.328 29.705 3.328h29.747q18.54 0 31.475-4.38 12.936-4.34 19.93-12.384 6.995-8.045 6.995-19.25 0-10.488-6.995-15.542-6.994-5.097-24.86-5.097h-80.772q-14.663-3.117-24.312-7.834-9.607-4.718-13.989-11.71-4.34-6.992-4.34-15.753 0-9.435 4.72-17.312 4.718-7.835 13.609-15.037 8.932-7.16 21.53-13.437l10.492 7.33q-7.373 5.264-12.092 9.982-4.72 4.717-7.163 9.098-2.444 4.338-2.444 9.604 0 8.045 6.826 11.71 6.826 3.664 20.098 3.664h68.217q19.592 0 32.865 4.886 13.273 4.886 20.478 14.868 7.163 9.941 7.163 25.694 0 20.977-11.925 34.792-11.882 13.816-31.812 20.429-19.93 6.655-43.694 6.655Z"
   id="path389" />
    <rect
   width="48.89"
   height="67.9"
   x="-24.445"
   y="-33.95"
   fill="none"
   rx="0"
   ry="0"
   transform="matrix(4.2135 0 0 4.2121 2865.659 1391.774)"
   id="rect391" />
    <path
   d="M956.711 1742.179h-83.258q-1.39 1.053-1.39 2.822 0 1.727.715 3.328.675 1.558 2.065 1.558 19.972-13.647 39.902-27.463t37.921-27.968q18.034-14.153 31.854-29.19 13.779-15.037 21.995-30.58 8.216-15.543 8.216-31.97 0-21.355-8.722-35.17-8.764-13.774-25.196-20.766-16.433-6.993-40.197-6.993-17.15 0-31.644 4.887-14.536 4.886-25.028 11.878-10.491 6.992-15.716 13.647v41.573h31.475v-44.016q-1.77-1.053-4.214.168-2.444 1.222-4.719 4.002-2.275 2.822-4.171 6.486-1.939 3.665-2.276 7.835 5.562-7.33 13.61-13.1 8.048-5.77 18.708-9.266 10.66-3.496 22.921-3.496 13.273 0 22.711 3.875 9.48 3.833 14.537 12.762 5.056 8.888 5.056 24.978 0 15.037-5.773 28.306-5.772 13.31-16.432 25.525-10.66 12.257-25.366 24.472-14.662 12.257-32.486 25.357-17.865 13.1-38.132 28.474v33.233h158.765v-70.974h-21.32l-3.16 31.465q-.717 5.939-4.888 9.098-4.214 3.117-13.104 4.17-8.933 1.053-23.259 1.053"
   id="path393" />
    <rect
   width="37.68"
   height="54.03"
   x="-18.84"
   y="-27.015"
   fill="none"
   rx="0"
   ry="0"
   transform="matrix(4.2135 0 0 4.2121 945.166 1655.68)"
   id="rect395" />
    <path
   d="M1139.956 1771.2q-18.876 0-34.087-7.666-15.21-7.708-26.25-22.577-10.997-14.868-16.938-36.519-5.983-21.692-5.983-48.944 0-27.631 5.983-49.113 5.94-21.524 16.938-36.561 11.04-15.037 26.25-22.535 15.21-7.498 34.087-7.498 18.877 0 34.256 7.498 15.38 7.498 26.419 22.535 10.997 15.037 16.77 36.56 5.772 21.483 5.772 49.114 0 27.252-5.772 48.944-5.773 21.65-16.77 36.52-11.04 14.868-26.419 22.576-15.38 7.666-34.256 7.666m0-20.639q12.936 0 22.206-5.94 9.27-5.938 15.379-17.985 6.11-12.046 9.101-29.906 2.95-17.817 2.95-41.236 0-23.798-2.95-41.616-2.992-17.817-9.101-29.863-6.11-12.09-15.38-18.028-9.27-5.94-22.205-5.94-12.935 0-22.205 5.94-9.27 5.939-15.379 18.028-6.152 12.046-9.101 29.863-2.992 17.818-2.992 41.616 0 23.42 2.992 41.236 2.95 17.86 9.101 29.906 6.11 12.047 15.38 17.986 9.269 5.939 22.204 5.939"
   id="path397" />
    <rect
   width="39.51"
   height="54.94"
   x="-19.755"
   y="-27.47"
   fill="none"
   rx="0"
   ry="0"
   transform="matrix(4.2135 0 0 4.2121 1142.042 1657.6)"
   id="rect399" />
    <path
   d="M1348.398 1742.179h-83.258q-1.39 1.053-1.39 2.822 0 1.727.715 3.328.675 1.558 2.065 1.558 19.972-13.647 39.902-27.463t37.921-27.968q18.034-14.153 31.854-29.19 13.779-15.037 21.995-30.58 8.216-15.543 8.216-31.97 0-21.355-8.722-35.17-8.764-13.774-25.197-20.766-16.432-6.993-40.196-6.993-17.15 0-31.644 4.887-14.536 4.886-25.028 11.878-10.491 6.992-15.716 13.647v41.573h31.475v-44.016q-1.77-1.053-4.214.168-2.444 1.222-4.719 4.002-2.275 2.822-4.171 6.486-1.939 3.665-2.276 7.835 5.562-7.33 13.61-13.1 8.048-5.77 18.708-9.266 10.66-3.496 22.921-3.496 13.273 0 22.711 3.875 9.48 3.833 14.537 12.762 5.056 8.888 5.056 24.978 0 15.037-5.773 28.306-5.772 13.31-16.432 25.525-10.66 12.257-25.366 24.472-14.663 12.257-32.486 25.357-17.865 13.1-38.132 28.474v33.233h158.765v-70.974h-21.32l-3.16 31.465q-.717 5.939-4.888 9.098-4.214 3.117-13.104 4.17-8.933 1.053-23.259 1.053"
   id="path401" />
    <rect
   width="37.68"
   height="54.03"
   x="-18.84"
   y="-27.015"
   fill="none"
   rx="0"
   ry="0"
   transform="matrix(4.2135 0 0 4.2121 1336.853 1655.68)"
   id="rect403" />
    <path
   d="m1594.256 1529.3-3.16-20.64q-33.582 4.17-59.79 16.596-26.25 12.425-44.62 32.18-18.33 19.755-27.978 46.502-9.607 26.747-9.607 60.275 0 36.73 11.04 60.317 10.997 23.588 30.59 34.96 19.592 11.373 45.084 11.373 24.48 0 42.514-11.204 17.992-11.162 27.978-30.58 9.943-19.418 9.943-43.89t-8.721-42.12q-8.765-17.65-24.65-27.253-15.926-9.604-37.247-9.604-13.652 0-24.817 4.507-11.208 4.55-20.14 12.594-8.891 8.046-15.886 18.534-6.994 10.488-11.924 22.745l2.823 17.101q6.278-13.268 13.104-23.42 6.826-10.108 14.537-16.932 7.668-6.823 16.77-10.488 9.1-3.664 20.646-3.664 15.379 0 24.649 7.329 9.27 7.329 13.272 20.26 4.045 12.931 4.045 30.411 0 19.25-5.267 33.74-5.225 14.53-15.548 22.744t-26.081 8.214q-12.556 0-22.711-4.549-10.155-4.55-17.149-14.49-6.994-9.982-10.66-26.41-3.666-16.427-3.666-40.225 0-31.464 7.5-55.052 7.542-23.588 22.037-40.015 14.536-16.427 35.52-26.242 20.983-9.772 47.57-13.605"
   id="path405" />
    <rect
   width="39.67"
   height="62.25"
   x="-19.835"
   y="-31.125"
   fill="none"
   rx="0"
   ry="0"
   transform="matrix(4.2135 0 0 4.2121 1534.782 1641.864)"
   id="rect407" />
    <path
   fill="#8A1878"
   stroke="#8A1878"
   stroke-width="3.896"
   d="M295.979 61.077V4.951H8.88v287.098h287.1v-56.126h-4.675v51.452H13.555V9.625h277.75v51.452z"
   paint-order="stroke"
   transform="matrix(4.2135 0 0 4.2121 -.006 874.503)"
   id="path409" />
    <path
   d="M1687.459 1555.583v77.882h-9.818v-77.882Zm26.292 35.045v8.424h-28.146v-8.424Zm4.424-35.045v8.466h-32.57v-8.466Z"
   id="path411" />
    <rect
   width="9.62"
   height="18.49"
   x="-4.81"
   y="-9.245"
   fill="none"
   rx="0"
   ry="0"
   transform="matrix(4.2135 0 0 4.2121 1700.015 1596.626)"
   id="rect413" />
    <path
   d="M1737.094 1584.688v48.777h-9.439v-57.875h9.144Zm14.41-9.393.042 9.183q-1.18-.253-2.107-.337-.927-.084-2.149-.084-2.696 0-4.677 1.053-2.022 1.095-3.455 2.99-1.474 1.938-2.317 4.591-.843 2.654-1.18 5.771l-2.444 1.643q0-5.265.8-9.857.843-4.59 2.613-8.171 1.77-3.538 4.509-5.56 2.78-1.98 6.615-1.98.843 0 2.107.21 1.264.254 1.643.548"
   id="path415" />
    <rect
   width="5.67"
   height="13.99"
   x="-2.835"
   y="-6.995"
   fill="none"
   rx="0"
   ry="0"
   transform="matrix(4.2135 0 0 4.2121 1741.707 1606.103)"
   id="rect417" />
    <path
   d="M1771.18 1575.59v57.875h-9.395v-57.875Zm-9.943-15.332q0-2.4 1.348-4.085 1.307-1.643 4.003-1.643 2.655 0 4.045 1.643 1.348 1.684 1.348 4.085 0 2.275-1.348 3.918-1.39 1.642-4.045 1.642-2.696 0-4.003-1.642-1.348-1.643-1.348-3.918"
   id="path419" />
    <rect
   width="2.55"
   height="18.74"
   x="-1.275"
   y="-9.37"
   fill="none"
   rx="0"
   ry="0"
   transform="matrix(4.2135 0 0 4.2121 1768.716 1596.103)"
   id="rect421" />
    <path
   d="M1806.87 1634.518q-5.183 0-9.355-1.559-4.171-1.516-7.12-4.717-2.95-3.202-4.509-8.046-1.559-4.886-1.559-11.499v-6.528q0-7.624 1.812-12.931 1.812-5.308 4.845-8.551 3.034-3.201 6.91-4.675 3.835-1.475 7.922-1.475 5.435 0 9.27 1.77 3.876 1.768 6.278 5.222 2.401 3.496 3.539 8.551 1.18 5.097 1.18 11.71v5.517h-36.194v-8.087h26.713v-1.306q-.21-4.506-1.222-7.918-.969-3.454-3.202-5.392-2.275-1.937-6.362-1.937-2.655 0-4.846.884-2.233.885-3.792 3.033-1.601 2.148-2.486 5.981-.885 3.791-.885 9.604v6.528q0 4.634.885 8.003.885 3.328 2.613 5.518 1.77 2.148 4.297 3.201 2.528 1.011 5.815 1.011 4.761 0 7.837-1.81 3.118-1.854 5.393-4.76l5.014 5.939q-1.559 2.19-4.045 4.212-2.486 1.98-6.11 3.243-3.623 1.264-8.637 1.264"
   id="path423" />
    <rect
   width="9.91"
   height="14.24"
   x="-4.955"
   y="-7.12"
   fill="none"
   rx="0"
   ry="0"
   transform="matrix(4.2135 0 0 4.2121 1807.312 1606.634)"
   id="rect425" />
    <path
   d="M1867.839 1622.218v-70.89h9.438v82.137h-8.638Zm-32.36-14.91v-5.392q0-7.16 1.39-12.341 1.39-5.14 3.961-8.509 2.57-3.327 6.152-4.928 3.581-1.6 7.921-1.6 4.509 0 7.71 1.81 3.245 1.812 5.436 5.266 2.191 3.454 3.455 8.34 1.264 4.886 1.686 11.035v7.245q-.464 6.066-1.728 10.952-1.264 4.843-3.455 8.297-2.19 3.412-5.435 5.223-3.287 1.812-7.795 1.812-4.256 0-7.795-1.685-3.54-1.685-6.11-5.055-2.612-3.412-4.003-8.508-1.39-5.139-1.39-11.963m9.48-5.391v5.391q0 4.802.674 8.383.717 3.538 2.191 5.854 1.517 2.36 3.835 3.454 2.317 1.138 5.604 1.138 3.96 0 6.446-1.938 2.528-1.938 4.045-5.097 1.517-3.2 2.444-6.865v-15.206q-.548-2.738-1.559-5.265-1.011-2.527-2.528-4.55-1.517-1.979-3.708-3.158-2.149-1.18-5.056-1.18-3.244 0-5.646 1.18-2.36 1.18-3.834 3.538-1.475 2.316-2.191 5.897-.717 3.58-.717 8.424"
   id="path427" />
    <rect
   width="9.92"
   height="19.75"
   x="-4.96"
   y="-9.875"
   fill="none"
   rx="0"
   ry="0"
   transform="matrix(4.2135 0 0 4.2121 1858.485 1595.025)"
   id="rect429" />
    <path
   d="M1901.336 1584.688v48.777h-9.48v-57.875h9.143Zm14.368-9.393.084 9.183q-1.18-.253-2.107-.337-.969-.084-2.19-.084-2.655 0-4.678 1.053-2.022 1.095-3.455 2.99-1.432 1.938-2.275 4.591-.885 2.654-1.18 5.771l-2.486 1.643q0-5.265.843-9.857.843-4.59 2.57-8.171 1.77-3.538 4.55-5.56 2.74-1.98 6.616-1.98.843 0 2.107.21 1.264.254 1.6.548"
   id="path431" />
    <rect
   width="5.68"
   height="13.99"
   x="-2.84"
   y="-6.995"
   fill="none"
   rx="0"
   ry="0"
   transform="matrix(4.2135 0 0 4.2121 1905.929 1606.103)"
   id="rect433" />
    <path
   d="M1935.423 1575.59v57.875h-9.438v-57.875Zm-9.986-15.332q0-2.4 1.348-4.085 1.349-1.643 4.003-1.643 2.697 0 4.045 1.643 1.39 1.684 1.39 4.085 0 2.275-1.39 3.918-1.348 1.642-4.045 1.642-2.654 0-4.003-1.642-1.348-1.643-1.348-3.918"
   id="path435" />
    <rect
   width="2.56"
   height="18.74"
   x="-1.28"
   y="-9.37"
   fill="none"
   rx="0"
   ry="0"
   transform="matrix(4.2135 0 0 4.2121 1932.937 1596.103)"
   id="rect437" />
    <path
   d="M1970.437 1626.43q2.823 0 5.183-1.137 2.317-1.137 3.792-3.622 1.517-2.485 1.728-6.487h8.89q-.21 5.77-2.907 10.11-2.697 4.38-7.079 6.78-4.34 2.444-9.607 2.444-5.604 0-9.775-1.812-4.13-1.81-6.826-5.265-2.697-3.454-4.045-8.382-1.348-4.97-1.348-11.288v-6.487q0-6.318 1.348-11.288 1.348-4.928 4.045-8.382 2.697-3.454 6.826-5.265 4.171-1.812 9.775-1.812 5.9 0 10.197 2.485 4.298 2.486 6.742 7.161 2.443 4.675 2.654 11.288h-8.89q-.211-4.254-1.56-7.118-1.306-2.864-3.623-4.296-2.317-1.39-5.52-1.39-3.75 0-6.151 1.305-2.444 1.306-3.835 3.75-1.39 2.484-1.98 5.896-.548 3.412-.548 7.666v6.487q0 4.254.548 7.708.59 3.412 1.938 5.897 1.348 2.443 3.834 3.749 2.444 1.305 6.194 1.305"
   id="path439" />
    <rect
   width="9.87"
   height="14.24"
   x="-4.935"
   y="-7.12"
   fill="none"
   rx="0"
   ry="0"
   transform="matrix(4.2135 0 0 4.2121 1971.343 1606.634)"
   id="rect441" />
    <path
   d="M2010.466 1551.329v82.136h-9.48v-82.136Zm-2.318 51.008-3.834-.168q-.042-5.94 1.348-10.994 1.433-5.054 4.087-8.803 2.613-3.749 6.32-5.77 3.708-2.065 8.175-2.065 3.539 0 6.446 1.138 2.866 1.137 4.888 3.664 2.065 2.527 3.16 6.487 1.096 4.001 1.096 9.73v37.909h-9.48v-38.036q0-4.549-.97-7.287-1.011-2.78-3.034-4.001-1.98-1.264-5.056-1.264-2.78 0-5.182 1.559-2.402 1.516-4.172 4.254-1.812 2.738-2.78 6.234-1.012 3.496-1.012 7.413"
   id="path443" />
    <rect
   width="9.22"
   height="19.5"
   x="-4.61"
   y="-9.75"
   fill="none"
   rx="0"
   ry="0"
   transform="matrix(4.2135 0 0 4.2121 2022.516 1594.503)"
   id="rect445" />
    <path
   d="M2071.435 1596.272v8.13h-22.079v-8.13Z"
   id="path447" />
    <rect
   width="5.24"
   height="1.93"
   x="-2.62"
   y="-.965"
   fill="none"
   rx="0"
   ry="0"
   transform="matrix(4.2135 0 0 4.2121 2062.502 1602.438)"
   id="rect449" />
    <path
   d="M2116.435 1613.794q0-2.738-.674-4.844-.632-2.106-2.233-3.833-1.601-1.727-4.467-3.285-2.907-1.517-7.331-3.117-4.846-1.727-8.722-3.833-3.919-2.106-6.657-4.844-2.781-2.738-4.256-6.276-1.517-3.496-1.517-8.045 0-4.55 1.601-8.424 1.56-3.834 4.467-6.698 2.907-2.864 7.036-4.465 4.13-1.6 9.228-1.6 7.584 0 12.809 3.327 5.182 3.37 7.879 8.72 2.655 5.39 2.655 11.498h-9.818q0-4.422-1.433-7.792-1.432-3.412-4.382-5.35-2.949-1.937-7.71-1.937-4.298 0-7.037 1.643-2.78 1.643-4.087 4.507-1.306 2.822-1.306 6.444 0 2.485.843 4.465.884 2.022 2.654 3.707 1.812 1.727 4.509 3.159 2.696 1.474 6.362 2.78 5.73 1.895 9.817 4.17 4.045 2.317 6.616 5.18 2.57 2.865 3.792 6.445 1.18 3.623 1.18 8.172 0 4.76-1.56 8.592-1.6 3.876-4.592 6.613-2.992 2.696-7.205 4.17-4.214 1.475-9.523 1.475-4.593 0-9.017-1.475-4.424-1.516-8.005-4.507-3.582-2.99-5.73-7.413-2.107-4.423-2.107-10.235h9.817q0 4.001 1.18 6.865 1.18 2.865 3.286 4.76 2.065 1.853 4.762 2.738 2.696.885 5.814.885 4.298 0 7.205-1.517 2.908-1.474 4.382-4.254 1.475-2.78 1.475-6.57"
   id="path451" />
    <rect
   width="11.33"
   height="18.99"
   x="-5.665"
   y="-9.495"
   fill="none"
   rx="0"
   ry="0"
   transform="matrix(4.2135 0 0 4.2121 2104.49 1596.626)"
   id="rect453" />
    <path
   d="M2157.938 1626.43q2.823 0 5.14-1.137 2.36-1.137 3.835-3.622 1.517-2.485 1.727-6.487h8.89q-.252 5.77-2.949 10.11-2.696 4.38-7.036 6.78-4.382 2.444-9.607 2.444-5.604 0-9.775-1.812-4.13-1.81-6.826-5.265-2.697-3.454-4.045-8.382-1.348-4.97-1.348-11.288v-6.487q0-6.318 1.348-11.288 1.348-4.928 4.045-8.382 2.696-3.454 6.826-5.265 4.171-1.812 9.775-1.812 5.899 0 10.197 2.485 4.297 2.486 6.741 7.161 2.402 4.675 2.655 11.288h-8.89q-.211-4.254-1.56-7.118-1.348-2.864-3.623-4.296-2.318-1.39-5.52-1.39-3.75 0-6.194 1.305-2.444 1.306-3.834 3.75-1.39 2.484-1.938 5.896t-.548 7.666v6.487q0 4.254.548 7.708.547 3.412 1.938 5.897 1.348 2.443 3.834 3.749 2.444 1.305 6.194 1.305"
   id="path455" />
    <rect
   width="9.87"
   height="14.24"
   x="-4.935"
   y="-7.12"
   fill="none"
   rx="0"
   ry="0"
   transform="matrix(4.2135 0 0 4.2121 2158.844 1606.634)"
   id="rect457" />
    <path
   d="M2197.924 1551.329v82.136h-9.438v-82.136Zm-2.275 51.008-3.877-.168q-.042-5.94 1.39-10.994 1.391-5.054 4.046-8.803 2.654-3.749 6.362-5.77 3.666-2.065 8.174-2.065 3.54 0 6.405 1.138 2.907 1.137 4.93 3.664 2.022 2.527 3.118 6.487 1.095 4.001 1.095 9.73v37.909h-9.438v-38.036q0-4.549-1.011-7.287-.97-2.78-2.992-4.001-1.98-1.264-5.056-1.264-2.78 0-5.183 1.559-2.401 1.516-4.213 4.254-1.77 2.738-2.781 6.234-.97 3.496-.97 7.413"
   id="path459" />
    <rect
   width="9.21"
   height="19.5"
   x="-4.605"
   y="-9.75"
   fill="none"
   rx="0"
   ry="0"
   transform="matrix(4.2135 0 0 4.2121 2209.996 1594.503)"
   id="rect461" />
    <path
   d="M2251.562 1575.59v57.875h-9.438v-57.875Zm-9.986-15.332q0-2.4 1.348-4.085 1.349-1.643 4.003-1.643 2.697 0 4.045 1.643 1.39 1.684 1.39 4.085 0 2.275-1.39 3.918-1.348 1.642-4.045 1.642-2.654 0-4.003-1.642-1.348-1.643-1.348-3.918"
   id="path463" />
    <rect
   width="2.56"
   height="18.74"
   x="-1.28"
   y="-9.37"
   fill="none"
   rx="0"
   ry="0"
   transform="matrix(4.2135 0 0 4.2121 2249.076 1596.103)"
   id="rect465" />
    <path
   d="M2276.674 1551.329v82.136h-9.396v-82.136Z"
   id="path467" />
    <rect
   width="2.23"
   height="19.5"
   x="-1.115"
   y="-9.75"
   fill="none"
   rx="0"
   ry="0"
   transform="matrix(4.2135 0 0 4.2121 2274.083 1594.503)"
   id="rect469" />
    <path
   d="M2301.83 1551.329v82.136h-9.44v-82.136Z"
   id="path471" />
    <rect
   width="2.24"
   height="19.5"
   x="-1.12"
   y="-9.75"
   fill="none"
   rx="0"
   ry="0"
   transform="matrix(4.2135 0 0 4.2121 2299.217 1594.503)"
   id="rect473" />
    <path
   d="M2337.517 1634.518q-5.182 0-9.354-1.559-4.213-1.516-7.12-4.717-2.95-3.202-4.509-8.046-1.559-4.886-1.559-11.499v-6.528q0-7.624 1.812-12.931 1.77-5.308 4.845-8.551 3.034-3.201 6.869-4.675 3.876-1.475 7.92-1.475 5.478 0 9.313 1.77 3.876 1.768 6.278 5.222 2.402 3.496 3.54 8.551 1.137 5.097 1.137 11.71v5.517h-36.152v-8.087h26.714v-1.306q-.211-4.506-1.222-7.918-.97-3.454-3.245-5.392-2.233-1.937-6.362-1.937-2.612 0-4.846.884-2.19.885-3.792 3.033-1.559 2.148-2.444 5.981-.884 3.791-.884 9.604v6.528q0 4.634.884 8.003.885 3.328 2.613 5.518 1.727 2.148 4.298 3.201 2.528 1.011 5.772 1.011 4.761 0 7.88-1.81 3.117-1.854 5.393-4.76l4.971 5.939q-1.559 2.19-4.044 4.212-2.486 1.98-6.068 3.243-3.624 1.264-8.638 1.264"
   id="path475" />
    <rect
   width="9.9"
   height="14.24"
   x="-4.95"
   y="-7.12"
   fill="none"
   rx="0"
   ry="0"
   transform="matrix(4.2135 0 0 4.2121 2337.939 1606.634)"
   id="rect477" />
    <path
   d="M2377.63 1584.688v48.777h-9.48v-57.875h9.143Zm14.368-9.393.084 9.183q-1.18-.253-2.149-.337-.927-.084-2.149-.084-2.654 0-4.677 1.053-2.022 1.095-3.455 2.99-1.432 1.938-2.317 4.591-.843 2.654-1.138 5.771l-2.486 1.643q0-5.265.843-9.857.843-4.59 2.57-8.171 1.77-3.538 4.55-5.56 2.74-1.98 6.574-1.98.885 0 2.149.21 1.222.254 1.601.548"
   id="path479" />
    <rect
   width="5.68"
   height="13.99"
   x="-2.84"
   y="-6.995"
   fill="none"
   rx="0"
   ry="0"
   transform="matrix(4.2135 0 0 4.2121 2382.223 1606.103)"
   id="rect481" />
    <path
   d="M2419.09 1596.272v8.13h-22.12v-8.13Z"
   id="path483" />
    <rect
   width="5.25"
   height="1.93"
   x="-2.625"
   y="-.965"
   fill="none"
   rx="0"
   ry="0"
   transform="matrix(4.2135 0 0 4.2121 2410.137 1602.438)"
   id="rect485" />
    <path
   d="M2466.619 1555.583h9.86v54.841q0 8.762-3.371 14.027-3.371 5.307-8.849 7.708-5.477 2.359-11.797 2.359-6.742 0-12.135-2.36-5.436-2.4-8.596-7.707-3.202-5.265-3.202-14.027v-54.841h9.817v54.841q0 6.066 1.728 9.52 1.728 3.412 4.93 4.802 3.16 1.39 7.458 1.39 4.34 0 7.5-1.39 3.202-1.39 4.93-4.802 1.727-3.454 1.727-9.52Z"
   id="path487" />
    <rect
   width="11.38"
   height="18.74"
   x="-5.69"
   y="-9.37"
   fill="none"
   rx="0"
   ry="0"
   transform="matrix(4.2135 0 0 4.2121 2454.61 1597.156)"
   id="rect489" />
    <path
   d="M2499.695 1587.932v45.533h-9.48v-57.875h8.932Zm-2.317 14.405-3.835-.168q-.042-5.94 1.349-10.994 1.432-5.054 4.087-8.803 2.654-3.749 6.32-5.77 3.708-2.065 8.174-2.065 3.54 0 6.447 1.138 2.865 1.137 4.93 3.664 2.022 2.527 3.118 6.487 1.095 4.001 1.095 9.73v37.909h-9.48v-38.036q0-4.549-.97-7.287-1.01-2.78-2.991-4.001-2.022-1.264-5.056-1.264-2.781 0-5.225 1.559-2.402 1.516-4.171 4.254-1.812 2.738-2.781 6.234-1.011 3.496-1.011 7.413"
   id="path491" />
    <rect
   width="9.22"
   height="13.99"
   x="-4.61"
   y="-6.995"
   fill="none"
   rx="0"
   ry="0"
   transform="matrix(4.2135 0 0 4.2121 2511.746 1606.103)"
   id="rect493" />
    <path
   d="M2553.46 1575.59v57.875h-9.439v-57.875Zm-9.945-15.332q0-2.4 1.307-4.085 1.348-1.643 4.045-1.643 2.654 0 4.002 1.643 1.39 1.684 1.39 4.085 0 2.275-1.39 3.918-1.348 1.642-4.002 1.642-2.697 0-4.045-1.642-1.307-1.643-1.307-3.918"
   id="path495" />
    <rect
   width="2.55"
   height="18.74"
   x="-1.275"
   y="-9.37"
   fill="none"
   rx="0"
   ry="0"
   transform="matrix(4.2135 0 0 4.2121 2550.994 1596.103)"
   id="rect497" />
    <path
   d="m2583.417 1624.535 12.388-48.945h9.649l-17.191 57.875h-6.236Zm-10.028-48.945 12.978 49.198 1.01 8.677h-6.235l-17.36-57.875Z"
   id="path499" />
    <rect
   width="9.89"
   height="13.74"
   x="-4.945"
   y="-6.87"
   fill="none"
   rx="0"
   ry="0"
   transform="matrix(4.2135 0 0 4.2121 2586.725 1606.634)"
   id="rect501" />
    <path
   d="M2635.285 1634.518q-5.182 0-9.354-1.559-4.17-1.516-7.12-4.717-2.95-3.202-4.467-8.046-1.559-4.886-1.559-11.499v-6.528q0-7.624 1.77-12.931 1.812-5.308 4.846-8.551 3.033-3.201 6.91-4.675 3.834-1.475 7.921-1.475 5.435 0 9.312 1.77 3.834 1.768 6.236 5.222 2.402 3.496 3.581 8.551 1.138 5.097 1.138 11.71v5.517h-36.152v-8.087h26.672v-1.306q-.211-4.506-1.18-7.918-1.011-3.454-3.245-5.392-2.233-1.937-6.362-1.937-2.612 0-4.845.884-2.234.885-3.793 3.033-1.6 2.148-2.486 5.981-.884 3.791-.884 9.604v6.528q0 4.634.884 8.003.885 3.328 2.655 5.518 1.727 2.148 4.256 3.201 2.528 1.011 5.814 1.011 4.761 0 7.837-1.81 3.118-1.854 5.436-4.76l4.972 5.939q-1.56 2.19-4.045 4.212-2.486 1.98-6.11 3.243-3.623 1.264-8.638 1.264"
   id="path503" />
    <rect
   width="9.9"
   height="14.24"
   x="-4.95"
   y="-7.12"
   fill="none"
   rx="0"
   ry="0"
   transform="matrix(4.2135 0 0 4.2121 2635.749 1606.634)"
   id="rect505" />
    <path
   d="M2675.398 1584.688v48.777h-9.438v-57.875h9.143Zm14.41-9.393.042 9.183q-1.18-.253-2.106-.337-.927-.084-2.15-.084-2.696 0-4.718 1.053-1.98 1.095-3.413 2.99-1.475 1.938-2.318 4.591-.843 2.654-1.18 5.771l-2.443 1.643q0-5.265.8-9.857.843-4.59 2.612-8.171 1.77-3.538 4.509-5.56 2.78-1.98 6.615-1.98.843 0 2.107.21 1.264.254 1.643.548"
   id="path507" />
    <rect
   width="5.67"
   height="13.99"
   x="-2.835"
   y="-6.995"
   fill="none"
   rx="0"
   ry="0"
   transform="matrix(4.2135 0 0 4.2121 2680.012 1606.103)"
   id="rect509" />
    <path
   d="M2727.393 1618.638q0-2.19-1.054-3.833-1.053-1.685-3.497-3.201-2.444-1.559-6.573-3.328-4.003-1.685-7.205-3.285-3.16-1.643-5.351-3.58-2.191-1.896-3.329-4.465-1.18-2.528-1.18-6.024 0-3.454 1.306-6.402 1.307-2.99 3.75-5.223 2.402-2.275 5.773-3.496 3.37-1.264 7.542-1.264 5.941 0 10.112 2.275 4.172 2.317 6.363 6.318 2.233 3.96 2.233 8.93h-9.396q0-2.401-1.096-4.55-1.053-2.148-3.16-3.495-2.064-1.348-5.056-1.348-3.16 0-5.14 1.095-1.98 1.137-2.866 2.948-.884 1.77-.884 3.918 0 1.6.463 2.737.464 1.18 1.56 2.149 1.137 1.01 3.075 2.021 1.98 1.053 5.014 2.401 5.899 2.275 9.902 4.634 4.003 2.358 6.067 5.517 2.107 3.16 2.107 7.793 0 3.79-1.348 6.866-1.39 3.074-3.877 5.307-2.528 2.19-6.025 3.327-3.497 1.138-7.837 1.138-6.531 0-11.04-2.57-4.55-2.611-6.868-6.823-2.317-4.17-2.317-9.014h9.48q.127 4.085 1.812 6.318 1.686 2.274 4.13 3.117 2.401.842 4.803.842 3.16 0 5.267-.926 2.149-.927 3.244-2.696 1.096-1.77 1.096-4.128"
   id="path511" />
    <rect
   width="9.33"
   height="14.24"
   x="-4.665"
   y="-7.12"
   fill="none"
   rx="0"
   ry="0"
   transform="matrix(4.2135 0 0 4.2121 2719.324 1606.634)"
   id="rect513" />
    <path
   d="M2759.457 1575.59v57.875h-9.438v-57.875Zm-9.944-15.332q0-2.4 1.307-4.085 1.348-1.643 4.045-1.643 2.654 0 4.002 1.643 1.39 1.684 1.39 4.085 0 2.275-1.39 3.918-1.348 1.642-4.002 1.642-2.697 0-4.045-1.642-1.307-1.643-1.307-3.918"
   id="path515" />
    <rect
   width="2.55"
   height="18.74"
   x="-1.275"
   y="-9.37"
   fill="none"
   rx="0"
   ry="0"
   transform="matrix(4.2135 0 0 4.2121 2756.992 1596.103)"
   id="rect517" />
    <path
   d="M2795.567 1575.59v7.582h-27.009v-7.582Zm-18.202-14.068h9.48v57.621q0 2.907.716 4.423.717 1.474 1.854 1.98 1.096.463 2.402.463.97 0 2.149-.21 1.18-.253 1.601-.422l-.084 8.088q-.927.379-2.57.716-1.602.337-4.045.337-3.034 0-5.689-1.432-2.612-1.433-4.213-4.844-1.601-3.412-1.601-9.183Z"
   id="path519" />
    <rect
   width="6.41"
   height="17.33"
   x="-3.205"
   y="-8.665"
   fill="none"
   rx="0"
   ry="0"
   transform="matrix(4.2135 0 0 4.2121 2784.17 1600.122)"
   id="rect521" />
    <path
   d="M2835.174 1623.566v-31.38q0-3.454-1.011-5.518-1.054-2.106-3.118-3.033-2.065-.968-5.14-.968-3.035 0-5.183 1.221-2.15 1.222-3.33 3.244-1.137 2.063-1.137 4.506h-9.48q0-3.117 1.39-6.15 1.349-3.032 3.919-5.517 2.57-2.485 6.194-3.96 3.581-1.474 8.09-1.474 5.35 0 9.48 1.727 4.087 1.727 6.447 5.644 2.36 3.918 2.36 10.362v28.558q0 2.907.463 6.15.463 3.285 1.306 5.602v.885h-9.775q-.717-1.727-1.096-4.592-.38-2.864-.38-5.307m1.518-25.188.084 6.95h-6.573q-3.37 0-6.11.758-2.738.758-4.719 2.148-1.98 1.432-3.033 3.496-1.054 2.106-1.054 4.76 0 3.496.97 5.56.968 2.064 2.907 2.948 1.896.927 4.845.927 3.582 0 6.32-1.685 2.74-1.643 4.256-4.001 1.517-2.36 1.39-4.381l2.107 4.423q-.21 2.106-1.348 4.549-1.18 2.443-3.202 4.633-2.023 2.233-4.804 3.665-2.739 1.39-6.151 1.39-5.057 0-8.807-1.938-3.792-1.895-5.856-5.644-2.107-3.749-2.107-9.267 0-4.17 1.475-7.708 1.432-3.496 4.255-6.107 2.865-2.57 7.163-4.044 4.298-1.432 9.986-1.432Zm-26.967-38.246q0-2.401 1.517-4.044 1.475-1.685 4.298-1.685 2.907 0 4.424 1.685 1.475 1.643 1.475 4.044 0 2.317-1.475 3.96-1.517 1.6-4.424 1.6-2.823 0-4.298-1.6-1.517-1.643-1.517-3.96m23.048.126q0-2.4 1.475-4.085 1.475-1.643 4.382-1.643 2.823 0 4.34 1.643 1.517 1.684 1.517 4.085 0 2.275-1.517 3.918-1.517 1.642-4.34 1.642-2.907 0-4.382-1.642-1.475-1.643-1.475-3.918"
   id="path523" />
    <rect
   width="9.64"
   height="19.02"
   x="-4.82"
   y="-9.51"
   fill="none"
   rx="0"
   ry="0"
   transform="matrix(4.2135 0 0 4.2121 2828.222 1596.567)"
   id="rect525" />
    <path
   d="M2880.427 1575.59v7.582h-27.009v-7.582Zm-18.16-14.068h9.438v57.621q0 2.907.758 4.423.717 1.474 1.812 1.98 1.138.463 2.444.463.927 0 2.107-.21 1.18-.253 1.6-.422l-.041 8.088q-.97.379-2.57.716-1.602.337-4.045.337-3.076 0-5.689-1.432-2.612-1.433-4.213-4.844-1.601-3.412-1.601-9.183Z"
   id="path527" />
    <rect
   width="6.41"
   height="17.33"
   x="-3.205"
   y="-8.665"
   fill="none"
   rx="0"
   ry="0"
   transform="matrix(4.2135 0 0 4.2121 2869.03 1600.122)"
   id="rect529" />
    <path
   d="M1704.523 1754.268v-55.137h9.818v55.137q0 7.708-2.697 13.015-2.654 5.265-7.416 8.045-4.719 2.738-10.87 2.738-6.026 0-10.787-2.443-4.761-2.485-7.5-7.498-2.697-5.012-2.697-12.678h9.86q0 4.928 1.475 8.087 1.474 3.16 3.96 4.634 2.528 1.516 5.689 1.516 3.202 0 5.73-1.727 2.486-1.77 3.96-5.18 1.475-3.455 1.475-8.51"
   id="path531" />
    <rect
   width="9.96"
   height="18.74"
   x="-4.98"
   y="-9.37"
   fill="none"
   rx="0"
   ry="0"
   transform="matrix(4.2135 0 0 4.2121 1695.464 1740.705)"
   id="rect533" />
    <path
   d="M1749.987 1778.066q-5.183 0-9.354-1.558-4.171-1.517-7.12-4.718-2.908-3.16-4.467-8.045-1.56-4.886-1.56-11.5v-6.528q0-7.624 1.77-12.931 1.812-5.307 4.846-8.55 3.076-3.202 6.91-4.676 3.877-1.474 7.922-1.474 5.477 0 9.311 1.769 3.835 1.769 6.236 5.223 2.444 3.496 3.582 8.55 1.138 5.097 1.138 11.71v5.518h-36.152v-8.087h26.671v-1.306q-.21-4.507-1.18-7.919-1.01-3.454-3.244-5.391-2.233-1.938-6.362-1.938-2.613 0-4.846.885-2.233.884-3.792 3.032-1.56 2.19-2.444 5.981-.885 3.791-.885 9.604v6.529q0 4.675.885 8.003.885 3.327 2.612 5.518 1.728 2.148 4.256 3.2 2.57 1.054 5.815 1.054 4.761 0 7.879-1.853 3.076-1.854 5.393-4.76l4.972 5.939q-1.559 2.19-4.045 4.212-2.486 2.022-6.11 3.243-3.58 1.264-8.637 1.264"
   id="path535" />
    <rect
   width="9.9"
   height="14.24"
   x="-4.95"
   y="-7.12"
   fill="none"
   rx="0"
   ry="0"
   transform="matrix(4.2135 0 0 4.2121 1750.45 1750.182)"
   id="rect537" />
    <path
   d="M1790.142 1731.48v45.533h-9.48v-57.874h8.932Zm-2.318 14.406-3.834-.169q-.084-5.939 1.348-10.994 1.433-5.054 4.045-8.803 2.655-3.706 6.363-5.77 3.665-2.064 8.174-2.064 3.54 0 6.404 1.137 2.908 1.137 4.93 3.664 2.023 2.528 3.16 6.487 1.096 4.002 1.096 9.73v37.909h-9.48v-38.035q0-4.55-1.012-7.287-.969-2.738-2.991-4.002-1.98-1.263-5.057-1.263-2.78 0-5.182 1.558-2.402 1.559-4.214 4.254-1.77 2.738-2.78 6.234-.97 3.496-.97 7.414"
   id="path539" />
    <rect
   width="9.22"
   height="13.99"
   x="-4.61"
   y="-6.995"
   fill="none"
   rx="0"
   ry="0"
   transform="matrix(4.2135 0 0 4.2121 1802.192 1749.651)"
   id="rect541" />
    <path
   d="M1862.066 1767.115v-31.38q0-3.412-1.053-5.518-1.012-2.107-3.076-3.033-2.065-.969-5.183-.969-2.991 0-5.14 1.222-2.191 1.221-3.329 3.243-1.138 2.064-1.138 4.507h-9.48q0-3.117 1.348-6.15 1.39-3.033 3.961-5.518 2.57-2.485 6.152-3.96 3.623-1.473 8.132-1.473 5.351 0 9.438 1.727 4.13 1.727 6.489 5.644 2.36 3.917 2.36 10.362v28.558q0 2.906.463 6.15.421 3.285 1.306 5.644v.842h-9.817q-.675-1.727-1.054-4.591t-.379-5.307m1.517-25.189.084 6.95h-6.573q-3.37 0-6.11.758-2.78.758-4.76 2.148-1.981 1.433-2.992 3.497-1.054 2.106-1.054 4.76 0 3.495.97 5.56.969 2.063 2.865 2.948 1.938.926 4.887.926 3.582 0 6.32-1.685 2.697-1.642 4.214-4.001 1.559-2.359 1.433-4.38l2.106 4.464q-.21 2.064-1.39 4.507-1.138 2.443-3.16 4.633-2.065 2.233-4.804 3.665-2.738 1.39-6.193 1.39-5.015 0-8.765-1.895-3.792-1.938-5.856-5.687-2.107-3.749-2.107-9.266 0-4.17 1.433-7.666 1.474-3.539 4.297-6.15 2.823-2.57 7.121-4.044 4.34-1.432 9.986-1.432Z"
   id="path543" />
    <rect
   width="9.64"
   height="14.24"
   x="-4.82"
   y="-7.12"
   fill="none"
   rx="0"
   ry="0"
   transform="matrix(4.2135 0 0 4.2121 1855.114 1750.182)"
   id="rect545" />
    <path
   d="M353.59 1416.584q0 4.928 4.889 7.708 4.887 2.78 13.988 3.833 9.102 1.053 21.363 1.053h14.326v18.196H265.445v-18.196H284.7q11.545 0 19.762-1.053 8.216-1.053 12.598-3.833 4.34-2.78 4.34-7.708v-167.81l5.604-4.17q-2.444 8.045-8.554 13.984t-15.379 10.15q-9.27 4.17-20.478 6.108-11.165 1.896-23.427 1.896v-22.703q13.273-.337 24.65-2.106 11.376-1.727 20.477-5.223 9.101-3.496 16.096-9.099 6.994-5.602 11.502-13.31h21.7Z"
   id="path547" />
    <rect
   width="35.36"
   height="52.96"
   x="-17.68"
   y="-26.48"
   fill="none"
   rx="0"
   ry="0"
   transform="matrix(4.2135 0 0 4.2121 335.768 1337.944)"
   id="rect549" />
    <path
   d="M519.013 1473.236q26.208 0 45.8-10.15 19.593-10.11 30.59-29.36 11.04-19.206 11.04-46.5 0-23.083-8.764-40.563-8.722-17.48-25.492-27.59-16.812-10.15-39.902-10.15-13.61 0-24.817 4.043-11.208 4.001-20.098 12.215-8.933 8.214-15.211 20.092.337 2.822 2.107 2.99 1.727.169 3.497-1.053 1.727-1.221 2.064-2.611v-113.306l-9.059 19.966h112.248l8.722-26.958H457.454v132.85h19.93q6.32-9.772 13.651-15.711 7.332-5.94 16.096-8.761 8.722-2.78 19.593-2.78 13.61 0 24.27 5.939 10.702 5.939 16.643 18.533 5.94 12.594 5.94 32.854 0 22.366-6.657 36.73-6.657 14.32-18.876 21.313-12.261 6.992-28.694 6.992-19.593 0-31.812-6.655-12.261-6.613-19.593-16.764-7.331-10.151-12.219-20.26l-19.256 13.268q6.658 14.32 17.15 26.03 10.491 11.71 26.376 18.534 15.927 6.823 39.017 6.823"
   id="path551" />
    <rect
   width="40.34"
   height="59.1"
   x="-20.17"
   y="-29.55"
   fill="none"
   rx="0"
   ry="0"
   transform="matrix(4.2135 0 0 4.2121 523.564 1350.875)"
   id="rect553" />
    <path
   d="M672.174 1450.154q-11.545 0-19.214-6.992-7.71-6.992-7.71-18.154 0-11.204 7.71-18.197 7.669-6.992 19.214-6.992 12.26 0 19.93 6.992 7.71 6.993 7.71 18.197 0 11.162-7.71 18.154-7.67 6.992-19.93 6.992"
   id="path555" />
    <rect
   width="12.95"
   height="11.95"
   x="-6.475"
   y="-5.975"
   fill="none"
   rx="0"
   ry="0"
   transform="matrix(4.2135 0 0 4.2121 674.639 1427.089)"
   id="rect557" />
</svg>
